<svg width="40" height="40" viewBox="0 0 40 40" fill="none" xmlns="http://www.w3.org/2000/svg">
<path d="M8 0.5H32C36.1421 0.5 39.5 3.85786 39.5 8V32C39.5 36.1421 36.1421 39.5 32 39.5H8C3.85786 39.5 0.5 36.1421 0.5 32V8C0.5 3.85786 3.85786 0.5 8 0.5Z" stroke="#D9D8D8"/>
<path fill-rule="evenodd" clip-rule="evenodd" d="M21.9826 12.8533C20.8758 12.9525 19.5016 13.8662 17.2197 16.0203C16.2704 16.9164 14.8562 18.336 12.8086 20.4483C11.7127 21.5788 11.7548 21.5329 11.7131 21.6444C11.6453 21.8254 11.6659 22.0148 11.7702 22.17C11.9305 22.4088 12.2606 22.49 12.5088 22.3518C12.5493 22.3292 12.8482 22.0368 13.185 21.6903C16.379 18.4038 17.7574 17.0364 18.915 16.0062C20.4584 14.6327 21.4992 13.9858 22.1682 13.9844C22.4159 13.9838 22.5992 14.0612 22.7886 14.2463C22.9168 14.3715 22.9432 14.4371 22.9432 14.6298C22.9432 15.388 21.6745 17.2056 19.1456 20.0703C17.5244 21.9067 16.7222 23.0652 16.3755 24.0707C16.0545 25.0015 16.2256 25.7659 16.853 26.2046C17.6332 26.7501 18.6598 26.571 19.984 25.6583C20.8378 25.0699 21.925 24.0723 23.1314 22.7703C24.1549 21.6656 24.5264 21.3347 24.9225 21.1747C25.1109 21.0986 25.2291 21.1175 25.3533 21.2435C25.4517 21.3433 25.472 21.3963 25.4694 21.5463C25.4635 21.8786 25.2755 22.2954 24.7103 23.2293C23.912 24.548 23.6976 24.9813 23.5699 25.5333C23.5166 25.7637 23.5043 26.1738 23.545 26.3641C23.6161 26.6961 23.7669 26.9631 24.0165 27.1992C24.1625 27.3372 24.2648 27.4037 24.4401 27.474C24.6446 27.5561 24.7871 27.5817 25.0312 27.58C25.702 27.5755 26.5082 27.1709 27.3892 26.3966C27.6607 26.158 28.063 25.7406 28.1105 25.6482C28.1384 25.594 28.1536 25.527 28.1589 25.4343C28.1731 25.188 28.0643 24.9993 27.8463 24.892C27.7472 24.8432 27.709 24.8343 27.5996 24.8343C27.3929 24.8345 27.3448 24.8647 26.9692 25.2312C26.2389 25.9437 25.5744 26.3775 25.1176 26.44C24.9332 26.4652 24.8112 26.4172 24.7164 26.2822C24.6635 26.2068 24.6622 26.1999 24.6629 25.9951C24.6637 25.8009 24.6688 25.7705 24.7311 25.5873C24.8414 25.2634 25.0585 24.8536 25.5768 23.9909C26.3356 22.7278 26.531 22.2901 26.5996 21.7003C26.6336 21.4078 26.5856 21.1089 26.4664 20.8713C26.3074 20.554 26.0393 20.2798 25.739 20.1271C25.409 19.9593 24.9514 19.9493 24.5454 20.1009C24.369 20.1667 24.1067 20.3113 23.9152 20.4483C23.4891 20.7528 23.1076 21.1192 22.2563 22.0413C20.8419 23.5731 19.4858 24.7421 18.6328 25.1648C18.3623 25.2989 18.1926 25.3566 17.9935 25.3821C17.8086 25.4058 17.6526 25.3758 17.5345 25.2937C17.3381 25.1574 17.3006 24.9351 17.41 24.5559C17.6497 23.7252 18.4479 22.5713 19.9841 20.8351C22.2909 18.2279 23.3692 16.7586 23.8347 15.5883C24.1025 14.9149 24.1302 14.3017 23.9123 13.8693C23.7509 13.5491 23.4132 13.2305 23.0332 13.0401C22.7212 12.8837 22.3598 12.8194 21.9826 12.8533Z" fill="#0A332F"/>
</svg>
