<svg width="44" height="44" viewBox="0 0 44 44" fill="none" xmlns="http://www.w3.org/2000/svg">
<g clip-path="url(#clip0_7_323)">
<path d="M22.2073 14.5L29.3533 21.6467C29.3997 21.693 29.4366 21.7481 29.4617 21.8087C29.4868 21.8694 29.4998 21.9344 29.4998 22C29.4998 22.0656 29.4868 22.1306 29.4617 22.1913C29.4366 22.2519 29.3997 22.307 29.3533 22.3533L22.2073 29.5" stroke="#1F544E" stroke-width="1.5" stroke-linecap="round" stroke-linejoin="round"/>
<path d="M14.7073 14.5L21.8533 21.6467C21.8997 21.693 21.9366 21.7481 21.9617 21.8087C21.9868 21.8694 21.9998 21.9344 21.9998 22C21.9998 22.0656 21.9868 22.1306 21.9617 22.1913C21.9366 22.2519 21.8997 22.307 21.8533 22.3533L14.7073 29.5" stroke="#1F544E" stroke-width="1.5" stroke-linecap="round" stroke-linejoin="round"/>
</g>
<defs>
<clipPath id="clip0_7_323">
<rect width="16" height="16" fill="white" transform="translate(14 14)"/>
</clipPath>
</defs>
</svg>
