<svg width="40" height="40" viewBox="0 0 40 40" fill="none" xmlns="http://www.w3.org/2000/svg">
<path d="M0 8C0 3.58172 3.58172 0 8 0H32C36.4183 0 40 3.58172 40 8V32C40 36.4183 36.4183 40 32 40H8C3.58172 40 0 36.4183 0 32V8Z" fill="#F8EEFE"/>
<path fill-rule="evenodd" clip-rule="evenodd" d="M16.2218 13.3386C16.5665 13.1732 16.9801 13.3185 17.1455 13.6632L17.8018 15.0305C18.4806 14.8663 19.2131 14.7717 20 14.7717C20.787 14.7717 21.5196 14.8663 22.1984 15.0306L22.8547 13.6632C23.0202 13.3185 23.4337 13.1732 23.7784 13.3386C24.1231 13.5041 24.2684 13.9176 24.103 14.2623L23.5271 15.4621C24.7193 15.9523 25.7045 16.6468 26.4874 17.3555L27.5231 16.3198C27.7935 16.0494 28.2318 16.0494 28.5022 16.3198C28.7726 16.5901 28.7726 17.0285 28.5022 17.2988L27.4575 18.3436C27.8418 18.7828 28.1483 19.1959 28.379 19.5359C28.5577 19.7992 28.692 20.0202 28.7828 20.1778C28.8283 20.2566 28.8629 20.3197 28.8869 20.3644C28.8989 20.3868 28.9082 20.4046 28.9148 20.4175L28.9229 20.4331L28.9254 20.438L28.9263 20.4398L28.9266 20.4405C28.9268 20.4408 28.9269 20.4411 28.3077 20.7507C28.9269 21.0603 28.9268 21.0606 28.9266 21.0609L28.9263 21.0616L28.9254 21.0634L28.9229 21.0683L28.9148 21.084C28.9082 21.0968 28.8989 21.1146 28.8869 21.137C28.8629 21.1817 28.8283 21.2448 28.7828 21.3237C28.692 21.4812 28.5577 21.7022 28.379 21.9655C28.0225 22.491 27.4851 23.1909 26.7588 23.8921C25.3064 25.2945 23.0661 26.7297 20 26.7297C16.9339 26.7297 14.6936 25.2945 13.2412 23.8921C12.5149 23.1909 11.9775 22.491 11.621 21.9655C11.4423 21.7022 11.308 21.4812 11.2172 21.3237C11.1717 21.2448 11.1371 21.1817 11.1131 21.137C11.1011 21.1146 11.0918 21.0968 11.0852 21.084L11.0771 21.0683L11.0746 21.0634L11.0737 21.0616L11.0734 21.0609C11.0732 21.0606 11.0731 21.0603 11.6923 20.7507C11.0731 20.4411 11.0732 20.4408 11.0734 20.4405L11.0737 20.4398L11.0746 20.438L11.0771 20.4331L11.0852 20.4175C11.0918 20.4046 11.1011 20.3868 11.1131 20.3644C11.1371 20.3197 11.1717 20.2566 11.2172 20.1778C11.308 20.0202 11.4423 19.7992 11.621 19.5359C11.8517 19.1959 12.1582 18.7828 12.5425 18.3436L11.4978 17.2988C11.2274 17.0285 11.2274 16.5901 11.4978 16.3198C11.7682 16.0494 12.2065 16.0494 12.4769 16.3198L13.5126 17.3555C14.2956 16.6467 15.2808 15.9522 16.4731 15.462L15.8972 14.2623C15.7318 13.9176 15.8771 13.5041 16.2218 13.3386ZM11.6923 20.7507L11.0731 20.4411C10.9756 20.636 10.9756 20.8654 11.0731 21.0603L11.6923 20.7507ZM12.4866 20.7507C12.5581 20.8696 12.6514 21.018 12.7667 21.188C13.0828 21.6538 13.5603 22.2756 14.2029 22.896C15.4882 24.137 17.4018 25.3451 20 25.3451C22.5982 25.3451 24.5118 24.137 25.7971 22.896C26.4397 22.2756 26.9172 21.6538 27.2333 21.188C27.3486 21.018 27.4419 20.8696 27.5134 20.7507C27.4419 20.6318 27.3486 20.4834 27.2333 20.3134C26.9172 19.8476 26.4397 19.2259 25.7971 18.6054C24.5118 17.3645 22.5982 16.1563 20 16.1563C17.4018 16.1563 15.4882 17.3645 14.2029 18.6054C13.5603 19.2259 13.0828 19.8476 12.7667 20.3134C12.6514 20.4834 12.5581 20.6318 12.4866 20.7507ZM28.3077 20.7507L28.9269 21.0603C29.0244 20.8654 29.0244 20.636 28.9269 20.4411L28.3077 20.7507ZM17.042 20.6752C17.042 19.0415 18.3663 17.7171 20 17.7171C21.6337 17.7171 22.958 19.0415 22.958 20.6752C22.958 22.3088 21.6337 23.6332 20 23.6332C18.3663 23.6332 17.042 22.3088 17.042 20.6752ZM20 19.1017C19.131 19.1017 18.4266 19.8061 18.4266 20.6752C18.4266 21.5441 19.131 22.2486 20 22.2486C20.869 22.2486 21.5734 21.5441 21.5734 20.6752C21.5734 19.8061 20.869 19.1017 20 19.1017Z" fill="#562274"/>
</svg>
