<svg width="40" height="40" viewBox="0 0 40 40" fill="none" xmlns="http://www.w3.org/2000/svg">
<path d="M8 0.5H32C36.1421 0.5 39.5 3.85786 39.5 8V32C39.5 36.1421 36.1421 39.5 32 39.5H8C3.85786 39.5 0.5 36.1421 0.5 32V8C0.5 3.85786 3.85786 0.5 8 0.5Z" stroke="#D9D8D8"/>
<path fill-rule="evenodd" clip-rule="evenodd" d="M27.0696 13.9034L20.2903 20.6827L21.8862 27.3131C21.9118 27.3972 21.9627 27.4714 22.0322 27.5255C22.1041 27.5816 22.1922 27.613 22.2834 27.6153C22.3746 27.6175 22.4641 27.5904 22.5388 27.538C22.6129 27.4859 22.6685 27.4116 22.6975 27.3257C22.6977 27.3252 22.6979 27.3246 22.6981 27.324L27.0696 13.9034ZM19.3109 19.704L26.0837 12.9312L12.6788 17.3031C12.6781 17.3033 12.6774 17.3035 12.6767 17.3038C12.5911 17.333 12.517 17.3886 12.465 17.4627C12.4126 17.5374 12.3856 17.6269 12.3878 17.7181C12.39 17.8093 12.4214 17.8974 12.4773 17.9694C12.5311 18.0388 12.6049 18.0897 12.6886 18.1156L19.3109 19.704ZM18.9526 21.042L12.3492 19.458C12.3403 19.4559 12.3315 19.4536 12.3227 19.4511C11.9501 19.346 11.6209 19.1243 11.3835 18.8184C11.1461 18.5126 11.013 18.1388 11.0036 17.7517C10.9942 17.3647 11.109 16.9848 11.3313 16.6678C11.5536 16.3508 11.8715 16.1134 12.2386 15.9903L12.244 15.9885L27.3496 11.0619C27.5697 10.9902 27.8055 10.9806 28.0308 11.0342C28.2278 11.0811 28.4102 11.1749 28.5627 11.3069C28.5856 11.3247 28.6077 11.3441 28.6287 11.3652C28.6485 11.385 28.6669 11.4057 28.6838 11.4271C28.8176 11.5793 28.9129 11.762 28.9611 11.9597C29.016 12.1847 29.0076 12.4204 28.937 12.6409L28.936 12.6443L24.0117 27.7618C23.8892 28.1295 23.6518 28.4483 23.3345 28.6711C23.0173 28.8939 22.6369 29.009 22.2493 28.9995C21.8617 28.9899 21.4875 28.8562 21.1816 28.6181C20.8757 28.3799 20.6543 28.0498 20.55 27.6765C20.5477 27.6684 20.5456 27.6603 20.5437 27.6522L18.9526 21.042Z" fill="#1F544E"/>
</svg>
