<svg width="40" height="40" viewBox="0 0 40 40" fill="none" xmlns="http://www.w3.org/2000/svg">
<path d="M0 8C0 3.58172 3.58172 0 8 0H32C36.4183 0 40 3.58172 40 8V32C40 36.4183 36.4183 40 32 40H8C3.58172 40 0 36.4183 0 32V8Z" fill="#FFE7E8"/>
<path fill-rule="evenodd" clip-rule="evenodd" d="M13.636 13.636C15.3239 11.9482 17.6131 11 20 11C22.3869 11 24.6761 11.9482 26.364 13.636C28.0518 15.3239 29 17.6131 29 20C29 22.3869 28.0518 24.6761 26.364 26.364C24.6761 28.0518 22.3869 29 20 29C17.6131 29 15.3239 28.0518 13.636 26.364C11.9482 24.6761 11 22.3869 11 20C11 17.6131 11.9482 15.3239 13.636 13.636ZM20 12.3846C17.9803 12.3846 16.0433 13.1869 14.6151 14.6151C13.1869 16.0433 12.3846 17.9803 12.3846 20C12.3846 22.0197 13.1869 23.9567 14.6151 25.3849C16.0433 26.8131 17.9803 27.6154 20 27.6154C22.0197 27.6154 23.9567 26.8131 25.3849 25.3849C26.8131 23.9567 27.6154 22.0197 27.6154 20C27.6154 17.9803 26.8131 16.0433 25.3849 14.6151C23.9567 13.1869 22.0197 12.3846 20 12.3846ZM17.1605 17.1606C17.4309 16.8902 17.8692 16.8902 18.1396 17.1605L19.9999 19.0205L21.8602 17.1605C22.1306 16.8902 22.5689 16.8902 22.8393 17.1606C23.1096 17.431 23.1096 17.8694 22.8392 18.1397L20.9791 19.9995L22.8392 21.8594C23.1096 22.1297 23.1096 22.5681 22.8393 22.8384C22.5689 23.1088 22.1306 23.1089 21.8602 22.8385L19.9999 20.9785L18.1396 22.8385C17.8692 23.1089 17.4309 23.1088 17.1605 22.8384C16.8902 22.5681 16.8902 22.1297 17.1606 21.8594L19.0208 19.9995L17.1606 18.1397C16.8902 17.8694 16.8902 17.431 17.1605 17.1606Z" fill="#82262A"/>
</svg>
