<svg width="40" height="40" viewBox="0 0 40 40" fill="none" xmlns="http://www.w3.org/2000/svg">
<path d="M0 8C0 3.58172 3.58172 0 8 0H32C36.4183 0 40 3.58172 40 8V32C40 36.4183 36.4183 40 32 40H8C3.58172 40 0 36.4183 0 32V8Z" fill="#B8F8D0"/>
<path fill-rule="evenodd" clip-rule="evenodd" d="M17.7629 11.5517C17.38 11.6149 17.0136 11.7586 16.6961 11.97C16.4901 12.1072 16.1392 12.4566 16.012 12.6511C15.8675 12.8721 11.2175 20.9284 11.1386 21.0945C10.9927 21.4014 11.0001 21.2756 11.0001 23.4595V25.4219L11.056 25.5359C11.1591 25.7457 11.3526 25.8732 11.5935 25.89C11.6919 25.8969 11.7498 25.8894 11.8253 25.8602C11.9299 25.8198 14.9895 24.1874 15.1664 24.0776C15.3356 23.9726 15.4599 23.8595 15.5687 23.7115C15.7141 23.5136 20.42 15.3581 20.5153 15.1386C20.8727 14.316 20.7753 13.3621 20.2581 12.6209C20.204 12.5434 20.0688 12.3891 19.9576 12.2779C19.601 11.9215 19.2143 11.7071 18.7189 11.5913C18.456 11.5299 18.0079 11.5113 17.7629 11.5517ZM17.8197 12.8321C17.5376 12.906 17.2916 13.0587 17.1316 13.2593C17.0843 13.3186 15.9685 15.2326 14.652 17.5126L12.2584 21.6581L12.2582 22.9323C12.2581 23.6332 12.2648 24.2029 12.2731 24.1984C12.2814 24.1939 12.7864 23.9247 13.3952 23.6002C14.0041 23.2757 14.5214 22.9913 14.5448 22.9682C14.5875 22.926 19.223 14.9046 19.3408 14.6691C19.6018 14.1472 19.4366 13.4315 18.9746 13.0819C18.8267 12.97 18.6145 12.8656 18.448 12.8228C18.2845 12.7808 17.9992 12.785 17.8197 12.8321ZM21.104 20.1928C20.404 20.2563 19.6327 20.725 19.0735 21.4266C18.3753 22.3028 17.8829 23.4128 17.7615 24.3846C17.7273 24.6581 17.7241 25.1283 17.7546 25.3817C17.804 25.7919 17.9533 26.2779 18.1301 26.6045C18.1587 26.6571 18.177 26.7052 18.1709 26.7113C18.1466 26.7356 17.7257 26.8683 17.4408 26.9414C16.6937 27.1331 16.1814 27.1839 14.8243 27.2005L13.7776 27.2133L13.6834 27.2614C13.4744 27.3683 13.3439 27.5648 13.3297 27.7941C13.3131 28.0618 13.4523 28.2903 13.7028 28.4068C13.8169 28.4598 13.8225 28.4604 14.3613 28.4677C15.0724 28.4773 16.0631 28.4421 16.5049 28.3913C17.3424 28.2951 18.0795 28.1147 18.7841 27.8333L19.0607 27.7229L19.1373 27.7835C19.4221 28.0091 19.9394 28.2601 20.3235 28.3592C20.6638 28.447 21.2415 28.4799 21.5789 28.4307C22.3707 28.3152 23.1085 27.9645 23.9002 27.327C24.0322 27.2208 24.1436 27.144 24.1478 27.1565C24.152 27.1689 24.2024 27.2582 24.26 27.3549C24.6047 27.9341 25.1331 28.2799 25.8771 28.4133C26.0953 28.4525 26.2086 28.457 27.2026 28.466C28.5403 28.4782 28.6146 28.4699 28.8005 28.2868C29.1189 27.9734 29.0466 27.4772 28.6518 27.2669L28.5511 27.2133L27.3536 27.2008C26.0303 27.187 26.0066 27.1849 25.7333 27.0546C25.5261 26.9558 25.4155 26.8479 25.3211 26.6526C25.2126 26.4284 25.1781 26.2163 25.1847 25.8144C25.1897 25.5104 25.1885 25.4999 25.1362 25.4018C24.9795 25.1075 24.6483 24.9765 24.3477 25.09C24.2039 25.1442 24.1136 25.2317 23.9118 25.5119C23.8288 25.6272 23.6476 25.8352 23.5092 25.9743C22.6493 26.8382 21.6988 27.2812 20.9148 27.1833C20.7423 27.1617 20.4008 27.0692 20.334 27.0259C20.3167 27.0146 20.3831 26.9519 20.5454 26.8263C21.4496 26.1264 22.1849 25.2071 22.7552 24.0633C23.1006 23.3704 23.2035 23.0108 23.2218 22.4311C23.2299 22.1753 23.2248 22.0521 23.1998 21.9053C23.0384 20.9589 22.3843 20.3 21.5066 20.1998C21.3284 20.1794 21.2639 20.1783 21.104 20.1928ZM21.0697 21.4753C20.5329 21.6297 19.994 22.166 19.5509 22.9865C18.9439 24.1107 18.8289 25.1165 19.2138 25.9347C19.266 26.0457 19.316 26.1364 19.325 26.1364C19.334 26.1364 19.4209 26.0808 19.5182 26.0128C20.3876 25.4049 21.1023 24.5503 21.6368 23.4796C21.8761 23.0003 21.9632 22.7041 21.9653 22.3626C21.968 21.9313 21.8368 21.6513 21.5669 21.5122C21.4455 21.4496 21.2177 21.4327 21.0697 21.4753Z" fill="#214E0A"/>
</svg>
