<svg width="40" height="40" viewBox="0 0 40 40" fill="none" xmlns="http://www.w3.org/2000/svg">
<path d="M8 0.5H32C36.1421 0.5 39.5 3.85786 39.5 8V32C39.5 36.1421 36.1421 39.5 32 39.5H8C3.85786 39.5 0.5 36.1421 0.5 32V8C0.5 3.85786 3.85786 0.5 8 0.5Z" stroke="#D9D8D8"/>
<path fill-rule="evenodd" clip-rule="evenodd" d="M19.9285 11.0162C16.9138 11.26 14.2888 13.0379 12.9803 15.722C12.1858 17.352 11.9357 19.2074 12.2706 20.9871C12.367 21.4994 12.5225 22.0344 12.7232 22.5441C12.8179 22.7849 13.0588 23.2955 13.1781 23.5086L13.2344 23.609L12.1353 25.9172C11.5309 27.1866 11.0272 28.2618 11.0159 28.3064C10.9152 28.7064 11.3095 29.0887 11.7086 28.9778C11.7467 28.9673 12.8135 28.4655 14.0792 27.8628L16.3805 26.7671L16.746 26.9517C17.5665 27.3662 18.3455 27.6205 19.2355 27.7643C20.0775 27.9004 21.033 27.9037 21.8709 27.7735C23.4024 27.5354 24.8436 26.8764 26.0397 25.8673C26.2794 25.6649 26.6931 25.257 26.9178 25.0012C28.1034 23.6514 28.8339 21.936 28.9835 20.1501C29.0169 19.7518 28.9967 18.7104 28.9487 18.359C28.6911 16.4713 27.8653 14.7931 26.544 13.4717C25.1859 12.1136 23.4554 11.2776 21.5305 11.0496C21.168 11.0066 20.2765 10.9881 19.9285 11.0162ZM19.7935 12.1672C19.4013 12.211 19.2032 12.2461 18.8125 12.3408C17.8862 12.5654 17.063 12.9457 16.2745 13.5133C15.7098 13.9197 15.1403 14.4774 14.72 15.0355C13.4756 16.6883 12.9923 18.8073 13.3963 20.8402C13.5596 21.6618 13.8589 22.4451 14.2823 23.1586C14.4481 23.438 14.4707 23.5478 14.4046 23.7531C14.386 23.8109 14.0206 24.5912 13.5927 25.4872C13.1648 26.3832 12.8033 27.1425 12.7893 27.1746L12.764 27.2329L12.8587 27.1902C12.9108 27.1667 13.6703 26.8053 14.5464 26.387C15.4226 25.9688 16.1868 25.6114 16.2446 25.5929C16.4497 25.5271 16.5599 25.5497 16.8373 25.7143C17.4617 26.0848 18.1792 26.3749 18.8845 26.5421C19.4777 26.6827 19.9455 26.7355 20.5945 26.7351C21.0912 26.7348 21.3612 26.7133 21.8104 26.6384C22.9109 26.4549 24.0657 25.9582 24.9596 25.2841C26.4346 24.1717 27.4327 22.5586 27.7667 20.7472C27.8545 20.2711 27.8748 20.0263 27.8748 19.4391C27.8748 19.0214 27.8671 18.8276 27.8426 18.6291C27.5883 16.564 26.5822 14.8079 24.9506 13.5815C23.8827 12.7787 22.6019 12.2857 21.2532 12.158C20.8616 12.121 20.1685 12.1253 19.7935 12.1672Z" fill="#0A332F"/>
</svg>
