<svg width="40" height="40" viewBox="0 0 40 40" fill="none" xmlns="http://www.w3.org/2000/svg">
<path d="M8 0.5H32C36.1421 0.5 39.5 3.85786 39.5 8V32C39.5 36.1421 36.1421 39.5 32 39.5H8C3.85786 39.5 0.5 36.1421 0.5 32V8C0.5 3.85786 3.85786 0.5 8 0.5Z" stroke="#D9D8D8"/>
<path fill-rule="evenodd" clip-rule="evenodd" d="M12.0604 11.0229C12.3173 10.9751 12.5826 11.0059 12.8216 11.1112L28.227 17.9157C28.473 18.0247 28.6798 18.2078 28.8174 18.4389C28.955 18.6701 29.0173 18.9383 28.9959 19.2065C28.9744 19.4746 28.8701 19.7295 28.6975 19.9358C28.5249 20.1422 28.2924 20.2898 28.0322 20.3582L22.251 21.8798C22.1621 21.9033 22.0811 21.9499 22.0161 22.0149C21.9512 22.0799 21.9046 22.161 21.8813 22.2499L20.3595 28.0318C20.2908 28.2919 20.1429 28.5247 19.9365 28.6972C19.73 28.8696 19.4751 28.9737 19.207 28.995C18.9388 29.0162 18.6707 28.9537 18.4396 28.816C18.2086 28.6783 18.026 28.4722 17.9172 28.2262L11.1081 12.8178C11.0037 12.5783 10.974 12.3129 11.0229 12.0563C11.0718 11.7996 11.197 11.5637 11.3821 11.3793C11.5672 11.195 11.8036 11.0707 12.0604 11.0229ZM12.4676 12.4685L27.4408 19.0821L21.8982 20.5409C21.5723 20.6269 21.2748 20.7979 21.0366 21.0363C20.7985 21.2746 20.6279 21.5719 20.5422 21.8977C20.5422 21.8978 20.5422 21.8976 20.5422 21.8977L19.0835 27.4399L12.4676 12.4685ZM27.6796 19.0192C27.6796 19.0193 27.6797 19.0192 27.6796 19.0192V19.0192Z" fill="#1F544E"/>
</svg>
