<svg width="40" height="40" viewBox="0 0 40 40" fill="none" xmlns="http://www.w3.org/2000/svg">
<path d="M0 8C0 3.58172 3.58172 0 8 0H32C36.4183 0 40 3.58172 40 8V32C40 36.4183 36.4183 40 32 40H8C3.58172 40 0 36.4183 0 32V8Z" fill="#B1BDBB"/>
<path fill-rule="evenodd" clip-rule="evenodd" d="M16.3419 11.1667C16.6322 11.4155 16.6658 11.8526 16.4169 12.1429L13.8249 15.1669C13.7891 15.2086 13.7617 15.2574 13.7447 15.3098C13.7278 15.3621 13.7214 15.4174 13.726 15.4722C13.7306 15.5271 13.7461 15.5805 13.7715 15.6293C13.7968 15.6781 13.8317 15.7214 13.8739 15.7566M13.8739 15.7566L15.9356 17.4742C15.9356 17.4742 15.9356 17.4742 15.9356 17.4742C16.138 17.6428 16.301 17.8538 16.4129 18.0922C16.5249 18.3307 16.5832 18.5908 16.5836 18.8542L16.5836 18.8554L16.5833 24.3759C17.0953 24.5015 17.568 24.765 17.947 25.144C18.4923 25.6893 18.7986 26.4288 18.7986 27.2V28.3077C18.7986 28.69 18.4887 29 18.1063 29C17.724 29 17.414 28.69 17.414 28.3077V27.2C17.414 26.7961 17.2535 26.4087 16.9679 26.123C16.6823 25.8374 16.2949 25.6769 15.8909 25.6769C15.487 25.6769 15.0996 25.8374 14.8139 26.123C14.5283 26.4087 14.3678 26.7961 14.3678 27.2V28.3077C14.3678 28.69 14.0579 29 13.6755 29C13.2932 29 12.9832 28.69 12.9832 28.3077V27.2C12.9832 26.4288 13.2896 25.6893 13.8349 25.144C14.2138 24.765 14.6866 24.5014 15.1987 24.3759L15.199 18.8561C15.1988 18.7955 15.1854 18.7356 15.1596 18.6807C15.1338 18.6257 15.0962 18.577 15.0495 18.5381L12.9876 16.8204C12.8044 16.6677 12.6532 16.4799 12.5431 16.2683C12.433 16.0567 12.3661 15.8253 12.3462 15.5876C12.3263 15.3499 12.3539 15.1106 12.4273 14.8836C12.5007 14.6568 12.6184 14.4467 12.7737 14.2658L15.3657 11.2418C15.6145 10.9515 16.0516 10.9179 16.3419 11.1667M20.8055 12.1761C21.5585 11.4231 22.5798 11 23.6448 11C24.7097 11 25.731 11.4231 26.4841 12.1761C27.2371 12.9291 27.6601 13.9504 27.6601 15.0154C27.6601 16.0803 27.2371 17.1017 26.4841 17.8547C25.8963 18.4425 25.145 18.8292 24.3371 18.9707V24.3759C24.8491 24.5015 25.3219 24.765 25.7008 25.144C26.2461 25.6893 26.5525 26.4288 26.5525 27.2V28.3077C26.5525 28.69 26.2425 29 25.8601 29C25.4778 29 25.1678 28.69 25.1678 28.3077V27.2C25.1678 26.7961 25.0074 26.4087 24.7217 26.123C24.4361 25.8374 24.0487 25.6769 23.6448 25.6769C23.2408 25.6769 22.8534 25.8374 22.5678 26.123C22.2822 26.4087 22.1217 26.7961 22.1217 27.2V28.3077C22.1217 28.69 21.8117 29 21.4294 29C21.047 29 20.7371 28.69 20.7371 28.3077V27.2C20.7371 26.4288 21.0434 25.6893 21.5887 25.144C21.9677 24.765 22.4405 24.5015 22.9525 24.3759V18.9707C22.1446 18.8292 21.3933 18.4425 20.8055 17.8547C20.0524 17.1017 19.6294 16.0803 19.6294 15.0154C19.6294 13.9504 20.0524 12.9291 20.8055 12.1761ZM23.6448 12.3846C22.947 12.3846 22.2779 12.6618 21.7845 13.1552C21.2912 13.6485 21.014 14.3177 21.014 15.0154C21.014 15.7131 21.2912 16.3823 21.7845 16.8756C22.2779 17.369 22.947 17.6462 23.6448 17.6462C24.3425 17.6462 25.0116 17.369 25.505 16.8756C25.9984 16.3823 26.2755 15.7131 26.2755 15.0154C26.2755 14.3177 25.9984 13.6485 25.505 13.1552C25.0116 12.6618 24.3425 12.3846 23.6448 12.3846Z" fill="#1F544E"/>
</svg>
