<svg width="50" height="50" viewBox="0 0 50 50" fill="none" xmlns="http://www.w3.org/2000/svg">
<g filter="url(#filter0_d_7_644)">
<path d="M9 22C9 13.1634 16.1634 6 25 6C33.8366 6 41 13.1634 41 22C41 30.8366 33.8366 38 25 38H9V22Z" fill="white" shape-rendering="crispEdges"/>
<path d="M25 6.5C33.5604 6.5 40.5 13.4396 40.5 22C40.5 30.5604 33.5604 37.5 25 37.5H9.5V22C9.5 13.4396 16.4396 6.5 25 6.5Z" stroke="#D9D8D8" shape-rendering="crispEdges"/>
<path fill-rule="evenodd" clip-rule="evenodd" d="M24.3802 12.6214C23.1558 12.7048 22.0309 13.001 20.9245 13.5313C18.205 14.8347 16.2514 17.416 15.7409 20.38C15.3073 22.8977 15.8981 25.4571 17.3867 27.51C18.8246 29.493 20.985 30.8444 23.3802 31.2591C25.0998 31.5568 26.8689 31.3747 28.4702 30.7352C30.88 29.7729 32.7731 27.8797 33.7355 25.47C34.6202 23.2547 34.6202 20.7453 33.7355 18.53C32.6434 15.7955 30.3574 13.7405 27.5202 12.943C26.5434 12.6684 25.4034 12.5517 24.3802 12.6214ZM24.4402 13.8725C23.1298 13.9892 22.088 14.3016 21.0102 14.9009C19.7371 15.6089 18.6134 16.7323 17.9004 18.01C17.3668 18.9661 17.0457 19.958 16.9068 21.08C16.8559 21.491 16.8559 22.5089 16.9068 22.92C17.0462 24.0452 17.3609 25.0172 17.901 25.99C18.6054 27.2588 19.7425 28.3958 21.0102 29.0991C21.983 29.6388 22.9574 29.9544 24.0802 30.0934C24.4913 30.1443 25.5092 30.1443 25.9202 30.0934C27.0421 29.9545 28.0183 29.6383 28.9902 29.0991C30.2485 28.4011 31.3911 27.2616 32.0878 26.01C32.6374 25.0228 32.9536 24.0515 33.0937 22.92C33.1446 22.5089 33.1446 21.491 33.0937 21.08C32.9546 19.9571 32.639 18.9827 32.0994 18.01C31.3961 16.7422 30.258 15.6042 28.9902 14.9008C28.0239 14.3647 27.0399 14.0448 25.9402 13.9093C25.6828 13.8776 24.6639 13.8526 24.4402 13.8725ZM24.4802 17.3616C24.2481 17.3956 24.0732 17.489 23.9016 17.6704C23.4617 18.1355 23.6078 18.9053 24.1902 19.1908C24.4653 19.3257 24.7564 19.3245 25.0374 19.1874C25.3739 19.0233 25.5802 18.6936 25.5802 18.32C25.5802 17.7371 25.0529 17.2776 24.4802 17.3616ZM23.4202 20.0778C23.0638 20.1927 22.8743 20.5687 23.0015 20.9086C23.054 21.0492 23.1865 21.1866 23.3358 21.2556C23.4452 21.3061 23.4692 21.3089 23.8802 21.3192L24.3102 21.33L24.3153 23.4226L24.3204 25.5151L23.8853 25.5235C23.4678 25.5315 23.4457 25.534 23.3371 25.5839C23.2041 25.6452 23.0811 25.765 23.0165 25.8961C22.979 25.9721 22.9703 26.0224 22.9705 26.16C22.9708 26.3051 22.9786 26.3446 23.0238 26.43C23.0876 26.5505 23.1984 26.66 23.3202 26.7233L23.4102 26.77H25.0002H26.5902L26.6863 26.7209C26.7392 26.6939 26.8211 26.6304 26.8684 26.5799C27.1623 26.2657 27.0597 25.7671 26.6633 25.5837C26.5531 25.5327 26.538 25.5311 26.0657 25.5234L25.5813 25.5155L25.5757 23.3127L25.5702 21.11L25.5142 20.95C25.3812 20.5706 25.0667 20.2563 24.6902 20.1265C24.5331 20.0723 24.5208 20.0712 24.0002 20.0665C23.7087 20.0639 23.4477 20.069 23.4202 20.0778Z" fill="#1F544E"/>
</g>
<defs>
<filter id="filter0_d_7_644" x="0" y="0" width="50" height="50" filterUnits="userSpaceOnUse" color-interpolation-filters="sRGB">
<feFlood flood-opacity="0" result="BackgroundImageFix"/>
<feColorMatrix in="SourceAlpha" type="matrix" values="0 0 0 0 0 0 0 0 0 0 0 0 0 0 0 0 0 0 127 0" result="hardAlpha"/>
<feOffset dy="3"/>
<feGaussianBlur stdDeviation="4.5"/>
<feComposite in2="hardAlpha" operator="out"/>
<feColorMatrix type="matrix" values="0 0 0 0 0.02125 0 0 0 0 0.0264 0 0 0 0 0.15 0 0 0 0.16 0"/>
<feBlend mode="normal" in2="BackgroundImageFix" result="effect1_dropShadow_7_644"/>
<feBlend mode="normal" in="SourceGraphic" in2="effect1_dropShadow_7_644" result="shape"/>
</filter>
</defs>
</svg>
