<svg width="100" height="14" viewBox="0 0 100 14" fill="none" xmlns="http://www.w3.org/2000/svg">
<path d="M98.6809 11.0155L99.0189 13.8802H89.0802V0.259045H97.7174L98.0564 3.12375H92.7123V5.60779H96.8839L97.223 8.47143H92.7123V11.0155H98.6809Z" fill="white"/>
<path d="M87.7508 3.50369C87.2585 2.48967 86.5299 1.69459 85.565 1.12023C84.5996 0.546226 83.4388 0.259045 82.0822 0.259045H74.7405L75.9348 2.7964V13.8802H82.0018C83.2657 13.8802 84.3903 13.6002 85.3752 13.039C86.36 12.4785 87.1249 11.6777 87.6712 10.6359C88.2168 9.5942 88.489 8.37866 88.489 6.99003C88.489 5.68172 88.2424 4.51984 87.7508 3.50476M83.9087 9.97486C83.356 10.6694 82.6416 11.0166 81.7626 11.0166H79.5679V3.12375H81.9034C82.7941 3.12375 83.49 3.48201 83.989 4.19534C84.4877 4.91045 84.7372 5.84166 84.7372 6.99003C84.7372 8.28518 84.461 9.28037 83.9087 9.97486Z" fill="white"/>
<path d="M66.813 0.572783C65.9092 0.572783 65.1774 1.30916 65.1774 2.21653C65.1774 2.41742 65.2143 2.60988 65.2798 2.78755L65.2738 2.79072L67.5135 7.47779L62.3293 6.7678C62.7529 7.12526 63.1273 7.53127 63.4457 7.9795C63.8746 8.58605 64.0927 9.2774 64.0927 10.0352C64.0927 10.1524 64.0878 10.2667 64.0779 10.3807L69.2107 10.8311L73.5607 13.861L75.6108 10.8965L71.2939 7.88873L68.3435 1.63249C68.3136 1.55122 68.2766 1.47417 68.2337 1.39993L68.227 1.38445H68.226C67.9417 0.898929 67.4164 0.572783 66.8141 0.572783H66.813Z" fill="white"/>
<path d="M58.3926 13.9989C57.6939 13.9989 56.9136 13.8934 56.0516 13.6816C55.1885 13.4708 54.5007 13.213 53.9871 12.9083L55.172 10.1918C55.5281 10.4036 56.0185 10.5978 56.6441 10.7765C57.27 10.9553 57.8206 11.0443 58.2934 11.0443C58.8198 11.0443 59.242 10.9349 59.5583 10.7171C59.8745 10.4982 60.0322 10.2579 60.0322 9.99337C60.0322 9.82167 59.9164 9.65279 59.6856 9.48744C59.4552 9.32243 59.0836 9.08705 58.5696 8.78342L57.9578 8.42702C57.0617 7.89892 56.364 7.45949 55.8637 7.10872C55.3627 6.75829 54.9152 6.30619 54.5201 5.75065C54.125 5.19511 53.9276 4.56815 53.9276 3.86696C53.9276 3.12671 54.1348 2.46281 54.5503 1.87384C54.9648 1.28594 55.5478 0.827151 56.2989 0.49608C57.0501 0.166064 57.9258 0 58.9267 0C59.6117 0 60.3133 0.0995678 61.0314 0.298C61.7484 0.49608 62.3655 0.767692 62.8781 1.11108L61.8107 3.55066C61.1133 3.31212 60.5761 3.15415 60.2003 3.07499C59.8249 2.99477 59.4133 2.95572 58.9658 2.95572C58.5707 2.95572 58.2516 3.0486 58.0074 3.23331C57.7632 3.41873 57.6415 3.64319 57.6415 3.90777C57.6415 4.1062 57.7435 4.28177 57.9479 4.4334C58.1523 4.58575 58.4919 4.7877 58.9658 5.03785L59.6772 5.43401C60.5061 5.90968 61.1978 6.35017 61.7515 6.75337C62.3043 7.15656 62.775 7.63329 63.1641 8.18109C63.5526 8.72889 63.7471 9.34811 63.7471 10.0345C63.7471 10.8019 63.529 11.4816 63.0952 12.0762C62.6614 12.6708 62.0386 13.1405 61.228 13.4842C60.4185 13.828 59.4728 14 58.3926 14" fill="white"/>
<path d="M14.5602 5.5511H19.6336V0.315174H23.148V13.8807H19.6336V8.32141H14.5602V13.8807H11.0469V0.315174H14.5602V5.5511Z" fill="white"/>
<path d="M32.0747 8.82522L30.6407 4.50722H30.6048L29.1528 8.82522H32.0747ZM33.0254 11.5234H28.1849L27.2526 13.8807H23.5243L28.7229 0.315174H32.5595L37.6512 13.8807H33.9042L33.0254 11.5234Z" fill="white"/>
<path d="M41.5585 0.315174H38.0452V13.8807H41.5585V0.315174Z" fill="white"/>
<path d="M46.5686 6.39655H46.9091C46.9686 6.40851 47.0288 6.41414 47.0882 6.41414H47.2497C47.775 6.38986 48.2566 6.26778 48.6926 6.04507C49.1295 5.82342 49.3473 5.38293 49.3473 4.72289C49.3473 4.06286 49.1295 3.61076 48.6926 3.38629C48.2556 3.16147 47.775 3.03763 47.2497 3.013H46.5686V6.39655ZM50.046 8.32141L54.2951 13.8807H49.9204L46.6045 8.66303H46.5686V13.8807H43.0549V0.315174H48.3084C49.6471 0.326784 50.7641 0.666652 51.6602 1.33161C52.5563 1.99762 53.0049 3.05593 53.0049 4.50722C53.0049 5.44274 52.7509 6.2727 52.2432 6.99923C51.7352 7.7247 51.0034 8.17188 50.0471 8.34005V8.32246L50.046 8.32141Z" fill="white"/>
<path d="M8.58642 10.3359C8.07569 10.5899 7.55489 10.7172 7.02125 10.7172C6.01851 10.7172 5.19134 10.3723 4.54077 9.68358C3.89611 8.9827 3.57343 8.10556 3.57343 7.05077C3.57343 6.69756 3.60812 6.34781 3.67613 6.00397C3.74448 5.65942 3.84788 5.35132 3.98528 5.0786C4.12233 4.80623 4.30171 4.54426 4.52273 4.29306C5.1674 3.59183 6.00047 3.24139 7.02125 3.24139C7.56252 3.24139 8.0854 3.36352 8.59198 3.6071L10.0229 0.892403C9.48819 0.634257 8.9327 0.429198 8.35812 0.275143C7.76688 0.143294 7.20063 0.0777168 6.65763 0.0777168C5.70971 0.0777168 4.8468 0.236629 4.07167 0.554454C3.29065 0.86638 2.5863 1.3452 1.95968 1.9923C1.59605 2.3757 1.29836 2.74522 1.06901 3.1026C0.839663 3.45894 0.649872 3.83748 0.501022 4.23997C0.167239 5.06992 0 5.98384 0 6.97791C0 8.21798 0.256409 9.34772 0.768882 10.3657C1.28101 11.3477 2.02491 12.1752 3.00162 12.8462C3.49119 13.1939 4.04669 13.4531 4.66638 13.6245C5.28745 13.7948 5.95051 13.8805 6.65485 13.8805C7.21035 13.8805 7.77625 13.8111 8.35604 13.6734C8.81577 13.5724 9.37231 13.3701 10.0246 13.0638L8.58712 10.3348L8.58642 10.3359Z" fill="white"/>
</svg>
