<svg width="25" height="25" viewBox="0 0 25 25" fill="none" xmlns="http://www.w3.org/2000/svg">
<path d="M12.5372 8.90993V12.9099L15.5372 15.9099M21.5372 12.9099C21.5372 14.0918 21.3044 15.2621 20.8521 16.3541C20.3999 17.446 19.7369 18.4382 18.9012 19.2739C18.0655 20.1096 17.0733 20.7726 15.9814 21.2248C14.8895 21.6771 13.7191 21.9099 12.5372 21.9099C11.3553 21.9099 10.185 21.6771 9.09308 21.2248C8.00115 20.7726 7.009 20.1096 6.17327 19.2739C5.33754 18.4382 4.67461 17.446 4.22232 16.3541C3.77002 15.2621 3.53723 14.0918 3.53723 12.9099C3.53723 10.523 4.48544 8.23379 6.17327 6.54597C7.8611 4.85814 10.1503 3.90993 12.5372 3.90993C14.9242 3.90993 17.2134 4.85814 18.9012 6.54597C20.589 8.23379 21.5372 10.523 21.5372 12.9099Z" stroke="#012925" stroke-width="2" stroke-linecap="round" stroke-linejoin="round"/>
</svg>
