<svg width="24" height="24" viewBox="0 0 24 24" fill="none" xmlns="http://www.w3.org/2000/svg">
<path fill-rule="evenodd" clip-rule="evenodd" d="M6.0785 3.55305C5.68484 3.62478 5.30488 3.85133 5.05319 4.16439C4.91782 4.33278 4.77585 4.60782 4.7186 4.8126L4.67836 4.95649L4.67367 9.81877L4.66897 14.681L3.89341 16.411C3.46684 17.3624 3.10274 18.1845 3.08431 18.2378C3.01792 18.4297 2.99155 18.63 3.00234 18.8604C3.02188 19.2766 3.14358 19.5654 3.43615 19.8899C3.62884 20.1036 4.01536 20.3362 4.31862 20.421L4.46252 20.4612L11.8911 20.4666C17.4084 20.4706 19.3635 20.4667 19.49 20.4513C19.5836 20.4399 19.7132 20.4145 19.7778 20.3947C20.3127 20.2309 20.8293 19.6898 20.9385 19.1789C20.9548 19.1026 20.9756 19.0154 20.9848 18.985C21.0049 18.9185 21.0052 18.5387 20.9851 18.5901C20.9747 18.6167 20.9681 18.6021 20.9587 18.5314C20.9273 18.2948 20.8447 18.1018 20.0476 16.4044L19.2392 14.6827L19.2345 9.81062L19.2298 4.93851L19.1801 4.7803C18.9917 4.17964 18.548 3.74438 17.9527 3.57618L17.8088 3.53553L12.008 3.53256C7.30636 3.53015 6.18286 3.53404 6.0785 3.55305ZM6.16663 4.69793C6.056 4.74045 5.91556 4.86935 5.85391 4.98495L5.81154 5.06442L5.8069 9.65557L5.80227 14.2467H11.9539H18.1056L18.1054 9.67356L18.1052 5.10039L18.0616 5.00662C18.0058 4.88681 17.8785 4.7595 17.7587 4.70372L17.6649 4.66007L11.9631 4.66083C6.28571 4.66158 6.2608 4.66174 6.16663 4.69793ZM11.7327 5.86591C11.3821 5.89703 11.0357 5.99815 10.709 6.16477C10.4518 6.29591 10.2397 6.44921 10.029 6.65626C9.61674 7.06132 9.35767 7.53006 9.23741 8.08848C9.1884 8.31614 9.17016 8.78407 9.20119 9.01837C9.29995 9.76425 9.68804 10.4392 10.2753 10.8864L10.4432 11.0143L10.204 11.1332C9.77137 11.3482 9.37017 11.6436 9.05148 11.9819C8.77706 12.2733 8.72403 12.378 8.73831 12.6007C8.74889 12.7654 8.81504 12.8919 8.94736 13.0004C9.09372 13.1204 9.29546 13.1532 9.48698 13.0882C9.57082 13.0598 9.61996 13.0186 9.8737 12.7643C10.0806 12.5568 10.2134 12.4403 10.3345 12.3598C10.6696 12.1371 11.0177 11.9908 11.4145 11.9061C11.6691 11.8517 12.2375 11.8462 12.481 11.8957C12.9603 11.9932 13.4972 12.2509 13.8697 12.562C13.929 12.6116 14.0626 12.7352 14.1665 12.8366C14.3694 13.0347 14.4472 13.0849 14.5937 13.1127C14.6948 13.1319 14.8577 13.1112 14.9395 13.0687C15.0262 13.0238 15.1473 12.9018 15.1919 12.8146C15.2303 12.7393 15.2367 12.7026 15.2367 12.556C15.2367 12.4005 15.232 12.377 15.1849 12.2952C15.1565 12.2457 15.031 12.1038 14.9061 11.9799C14.5509 11.6275 14.1382 11.335 13.6943 11.1212C13.5979 11.0748 13.5193 11.0326 13.5197 11.0274C13.5201 11.0223 13.5781 10.9776 13.6485 10.9281C14.1887 10.5486 14.595 9.91991 14.7427 9.23511C14.7911 9.01073 14.8102 8.52583 14.7793 8.30791C14.6454 7.36606 14.0964 6.58566 13.272 6.1652C12.9315 5.99155 12.6094 5.89958 12.2214 5.86525C11.9966 5.84535 11.964 5.84539 11.7327 5.86591ZM11.7742 6.99078C11.7495 6.99535 11.6728 7.01229 11.6037 7.02846C10.7877 7.21957 10.2342 7.99303 10.3192 8.82368C10.36 9.22292 10.5005 9.52931 10.7759 9.81967C10.9872 10.0425 11.2283 10.1899 11.5352 10.2837C11.6795 10.3279 11.7192 10.3321 11.99 10.3321C12.2609 10.3321 12.3006 10.3279 12.4449 10.2837C12.7517 10.1899 12.9929 10.0425 13.2042 9.81967C13.4796 9.52931 13.6201 9.22292 13.6609 8.82368C13.7192 8.25411 13.4721 7.68362 13.014 7.33005C12.7291 7.1101 12.418 7.00085 12.044 6.98939C11.9203 6.9856 11.7989 6.98623 11.7742 6.99078ZM4.90476 16.9183C4.52544 17.7645 4.19493 18.5066 4.1703 18.5676C4.13206 18.6623 4.12672 18.699 4.1337 18.8195C4.14063 18.9389 4.14996 18.9722 4.1945 19.0355C4.26878 19.1412 4.41471 19.2547 4.53346 19.2991L4.63474 19.337H11.9964C18.5745 19.337 19.3681 19.3341 19.4515 19.3093C19.5647 19.2757 19.7566 19.1055 19.8132 18.9886C19.8547 18.9028 19.8626 18.7436 19.831 18.6297C19.8205 18.5919 19.4767 17.8472 19.067 16.9749L18.322 15.3889L11.9582 15.3844L5.59444 15.3799L4.90476 16.9183ZM10.7311 17.1105C10.5445 17.152 10.3614 17.3398 10.3168 17.5352C10.2912 17.6477 10.305 17.7841 10.353 17.8926C10.3967 17.9916 10.5316 18.1249 10.6375 18.1738C10.7216 18.2127 10.7268 18.2128 11.99 18.2128C13.2533 18.2128 13.2584 18.2127 13.3426 18.1738C13.4485 18.1249 13.5834 17.9916 13.6271 17.8926C13.6751 17.7841 13.6888 17.6477 13.6632 17.5352C13.6171 17.3329 13.4347 17.1514 13.2348 17.1089C13.1117 17.0828 10.8493 17.0842 10.7311 17.1105ZM3.00339 18.7794C3.00339 18.8932 3.00632 18.9398 3.00988 18.8829C3.01344 18.826 3.01344 18.7329 3.00988 18.676C3.00632 18.6191 3.00339 18.6657 3.00339 18.7794Z" fill="white"/>
</svg>
