<svg width="16" height="16" viewBox="0 0 16 16" fill="none" xmlns="http://www.w3.org/2000/svg">
<path fill-rule="evenodd" clip-rule="evenodd" d="M2.95385 2.92308C2.93685 2.92308 2.92308 2.93685 2.92308 2.95385V9.84615C2.92308 9.86315 2.93685 9.87692 2.95385 9.87692H9.84615C9.86315 9.87692 9.87692 9.86315 9.87692 9.84615V2.95385C9.87692 2.93685 9.86315 2.92308 9.84615 2.92308H2.95385ZM2 2.95385C2 2.42705 2.42706 2 2.95385 2H9.84615C10.373 2 10.8 2.42706 10.8 2.95385V9.84615C10.8 10.373 10.373 10.8 9.84615 10.8H2.95385C2.42705 10.8 2 10.373 2 9.84615V2.95385ZM11.2308 5.66154C11.2308 5.40664 11.4374 5.2 11.6923 5.2H13.0462C13.573 5.2 14 5.62706 14 6.15385V13.0462C14 13.573 13.573 14 13.0462 14H6.15385C5.62705 14 5.2 13.573 5.2 13.0462V11.6923C5.2 11.4374 5.40664 11.2308 5.66154 11.2308C5.91644 11.2308 6.12308 11.4374 6.12308 11.6923V13.0462C6.12308 13.0632 6.13685 13.0769 6.15385 13.0769H13.0462C13.0632 13.0769 13.0769 13.0632 13.0769 13.0462V6.15385C13.0769 6.13685 13.0631 6.12308 13.0462 6.12308H11.6923C11.4374 6.12308 11.2308 5.91644 11.2308 5.66154Z" fill="#1F544E"/>
</svg>
