<svg width="16" height="16" viewBox="0 0 16 16" fill="none" xmlns="http://www.w3.org/2000/svg">
<path fill-rule="evenodd" clip-rule="evenodd" d="M3.75736 3.75736C4.88258 2.63214 6.4087 2 8 2C9.5913 2 11.1174 2.63214 12.2426 3.75736C13.3679 4.88258 14 6.4087 14 8C14 9.5913 13.3679 11.1174 12.2426 12.2426C11.1174 13.3679 9.5913 14 8 14C6.4087 14 4.88258 13.3679 3.75736 12.2426C2.63214 11.1174 2 9.5913 2 8C2 6.4087 2.63214 4.88258 3.75736 3.75736ZM8 2.92308C6.65352 2.92308 5.36218 3.45797 4.41007 4.41007C3.45797 5.36218 2.92308 6.65352 2.92308 8C2.92308 9.34648 3.45797 10.6378 4.41007 11.5899C5.36218 12.542 6.65352 13.0769 8 13.0769C9.34648 13.0769 10.6378 12.542 11.5899 11.5899C12.542 10.6378 13.0769 9.34648 13.0769 8C13.0769 6.65352 12.542 5.36218 11.5899 4.41007C10.6378 3.45797 9.34648 2.92308 8 2.92308ZM8 4.95385C8.2549 4.95385 8.46154 5.16048 8.46154 5.41538V9.83959L9.5198 8.78134C9.70004 8.60109 9.99227 8.60109 10.1725 8.78134C10.3528 8.96158 10.3528 9.25381 10.1725 9.43405L8.32636 11.2802C8.14612 11.4604 7.85389 11.4604 7.67364 11.2802L5.82749 9.43405C5.64725 9.25381 5.64725 8.96158 5.82749 8.78134C6.00773 8.60109 6.29996 8.60109 6.4802 8.78134L7.53846 9.83959V5.41538C7.53846 5.16048 7.7451 4.95385 8 4.95385Z" fill="#1F544E"/>
</svg>
