<svg width="24" height="24" viewBox="0 0 24 24" fill="none" xmlns="http://www.w3.org/2000/svg">
<path fill-rule="evenodd" clip-rule="evenodd" d="M11.5831 3.13957C11.8299 2.95348 12.1701 2.95348 12.4169 3.13957L20.4461 9.19495C20.4647 9.20892 20.4825 9.2238 20.4995 9.23956C20.7969 9.51479 20.976 9.8947 20.9989 10.2993C20.9996 10.3123 21 10.3254 21 10.3385V19.5855L21 19.5876C20.9989 19.9618 20.8497 20.3204 20.5851 20.5851C20.3204 20.8497 19.9618 20.9989 19.5876 21L19.5855 21H4.41452L4.41241 21C4.03817 20.9989 3.67958 20.8497 3.41495 20.5851C3.15032 20.3204 3.00115 19.9618 3 19.5876L3 19.5855V10.3385C3 10.3254 3.00037 10.3123 3.00111 10.2993C3.02404 9.8947 3.20307 9.51479 3.50051 9.23956C3.51753 9.2238 3.53534 9.20892 3.55385 9.19495L11.5831 3.13957ZM4.42585 10.2716C4.40333 10.2981 4.38896 10.3307 4.38462 10.3654V19.5837C4.38474 19.5921 4.38811 19.6001 4.39402 19.606C4.39993 19.6119 4.4079 19.6153 4.41625 19.6154H19.5837C19.5921 19.6153 19.6001 19.6119 19.606 19.606C19.6119 19.6001 19.6153 19.5921 19.6154 19.5837V10.3654C19.611 10.3307 19.5967 10.2981 19.5742 10.2716L12 4.55942L4.42585 10.2716Z" fill="white"/>
</svg>
