<svg width="24" height="24" viewBox="0 0 24 24" fill="none" xmlns="http://www.w3.org/2000/svg">
<path fill-rule="evenodd" clip-rule="evenodd" d="M5.37083 4.38462C5.26066 4.38462 5.15501 4.42838 5.07711 4.50628C4.99921 4.58418 4.95545 4.68983 4.95545 4.8V19.2C4.95545 19.3102 4.99921 19.4158 5.07711 19.4937C5.15501 19.5716 5.26067 19.6154 5.37083 19.6154H18.6292C18.7393 19.6154 18.845 19.5716 18.9229 19.4937C19.0008 19.4158 19.0446 19.3102 19.0446 19.2V6.92898C19.0446 6.87356 19.0335 6.81832 19.012 6.76724C18.9905 6.71617 18.959 6.66991 18.9194 6.63119L16.7376 4.50258C16.6601 4.42707 16.556 4.38464 16.4478 4.38462C16.4477 4.38462 16.4478 4.38462 16.4478 4.38462H5.37083ZM4.09804 3.52721C4.4356 3.18964 4.89344 3 5.37083 3H16.4478C16.9172 3.00005 17.3681 3.18349 17.7042 3.5112L19.8865 5.64034C20.0583 5.80812 20.1951 6.00881 20.2882 6.23015C20.3814 6.45149 20.4293 6.68923 20.4292 6.92937V19.2C20.4292 19.6774 20.2395 20.1352 19.902 20.4728C19.5644 20.8104 19.1066 21 18.6292 21H5.37083C4.89344 21 4.4356 20.8104 4.09804 20.4728C3.76047 20.1352 3.57083 19.6774 3.57083 19.2V4.8C3.57083 4.32261 3.76047 3.86477 4.09804 3.52721ZM7.58333 7.0125C8.02477 6.57107 8.62348 6.32308 9.24775 6.32308C9.87203 6.32308 10.4707 6.57107 10.9122 7.0125C11.3536 7.45393 11.6016 8.05264 11.6016 8.67692C11.6016 9.3012 11.3536 9.89991 10.9122 10.3413C10.4707 10.7828 9.87203 11.0308 9.24775 11.0308C8.62348 11.0308 8.02477 10.7828 7.58333 10.3413C7.1419 9.89991 6.89391 9.3012 6.89391 8.67692C6.89391 8.05264 7.1419 7.45393 7.58333 7.0125ZM9.24775 7.70769C8.9907 7.70769 8.74417 7.80981 8.5624 7.99157C8.38064 8.17334 8.27852 8.41987 8.27852 8.67692C8.27852 8.93398 8.38064 9.18051 8.5624 9.36227C8.74417 9.54404 8.9907 9.64615 9.24775 9.64615C9.50481 9.64615 9.75134 9.54404 9.9331 9.36227C10.1149 9.18051 10.217 8.93398 10.217 8.67692C10.217 8.41987 10.1149 8.17334 9.9331 7.99157C9.75134 7.80981 9.50481 7.70769 9.24775 7.70769ZM12.8528 11.3639C13.0613 11.2567 13.2928 11.202 13.5273 11.2047C13.7617 11.2073 13.9919 11.2672 14.1979 11.3792C14.4039 11.4911 14.5794 11.6516 14.7091 11.8468C14.7091 11.8468 14.7092 11.8469 14.7091 11.8468L17.6072 16.1942C17.8193 16.5124 17.7333 16.9422 17.4151 17.1543C17.097 17.3664 16.6672 17.2804 16.4551 16.9622L13.5566 12.6142C13.5517 12.6068 13.5446 12.6 13.5368 12.5958C13.5291 12.5915 13.5204 12.5893 13.5115 12.5892C13.5027 12.5891 13.494 12.5911 13.4861 12.5952C13.4782 12.5992 13.4715 12.6051 13.4664 12.6124L11.4787 15.4525C11.3689 15.6094 11.1991 15.7138 11.0095 15.7409C10.82 15.768 10.6277 15.7154 10.4783 15.5956L9.24683 14.6077C9.24678 14.6077 9.24687 14.6077 9.24683 14.6077C9.24098 14.6031 9.2341 14.5996 9.22688 14.5976C9.2196 14.5957 9.212 14.5953 9.20455 14.5964C9.19711 14.5976 9.18999 14.6003 9.18364 14.6043C9.1773 14.6084 9.17186 14.6137 9.16769 14.62L7.60866 16.9619C7.39677 17.2802 6.967 17.3664 6.64872 17.1545C6.33045 16.9426 6.2442 16.5129 6.45608 16.1946L8.01483 13.8532C8.12543 13.6869 8.26942 13.5455 8.43765 13.4379C8.60588 13.3303 8.79467 13.2589 8.99199 13.2282C9.18931 13.1976 9.39085 13.2083 9.5838 13.2598C9.77674 13.3113 9.95686 13.4024 10.1127 13.5272L10.7681 14.053L12.331 11.8199" fill="white"/>
</svg>
