<svg width="24" height="24" viewBox="0 0 24 24" fill="none" xmlns="http://www.w3.org/2000/svg">
<path fill-rule="evenodd" clip-rule="evenodd" d="M8.95767 6.45516C9.9222 6.05564 10.956 5.85001 12 5.85001C13.044 5.85001 14.0778 6.05564 15.0423 6.45516C16.0069 6.85469 16.8833 7.44028 17.6215 8.17851C18.3597 8.91673 18.9453 9.79313 19.3448 10.7577C19.7444 11.7222 19.95 12.756 19.95 13.8C19.95 14.844 19.7444 15.8778 19.3448 16.8423C18.9453 17.8069 18.3597 18.6833 17.6215 19.4215C16.8833 20.1597 16.0069 20.7453 15.0423 21.1448C14.0778 21.5444 13.044 21.75 12 21.75C10.956 21.75 9.9222 21.5444 8.95767 21.1448C7.99313 20.7453 7.11673 20.1597 6.3785 19.4215C5.64027 18.6833 5.05468 17.8069 4.65516 16.8423C4.25563 15.8778 4.05 14.844 4.05 13.8C4.05 12.756 4.25563 11.7222 4.65516 10.7577C5.05468 9.79313 5.64027 8.91673 6.3785 8.17851C7.11673 7.44028 7.99313 6.85469 8.95767 6.45516ZM12 7.35001C11.153 7.35001 10.3142 7.51684 9.53169 7.84098C8.74914 8.16513 8.0381 8.64023 7.43916 9.23917C6.84022 9.8381 6.36512 10.5491 6.04098 11.3317C5.71683 12.1142 5.55 12.953 5.55 13.8C5.55 14.647 5.71683 15.4858 6.04098 16.2683C6.36512 17.0509 6.84022 17.7619 7.43916 18.3608C8.0381 18.9598 8.74914 19.4349 9.53169 19.759C10.3142 20.0832 11.153 20.25 12 20.25C12.847 20.25 13.6858 20.0832 14.4683 19.759C15.2509 19.4349 15.9619 18.9598 16.5608 18.3608C17.1598 17.7619 17.6349 17.0509 17.959 16.2683C18.2832 15.4858 18.45 14.647 18.45 13.8C18.45 12.953 18.2832 12.1142 17.959 11.3317C17.6349 10.5491 17.1598 9.83811 16.5608 9.23917C15.9619 8.64023 15.2509 8.16513 14.4683 7.84098C13.6858 7.51684 12.847 7.35001 12 7.35001Z" fill="white"/>
<path fill-rule="evenodd" clip-rule="evenodd" d="M18.8303 6.36966C19.1232 6.66256 19.1232 7.13743 18.8303 7.43032L17.3303 8.93032C17.0374 9.22322 16.5626 9.22322 16.2697 8.93032C15.9768 8.63743 15.9768 8.16256 16.2697 7.86966L17.7697 6.36966C18.0626 6.07677 18.5374 6.07677 18.8303 6.36966Z" fill="white"/>
<path fill-rule="evenodd" clip-rule="evenodd" d="M17.4697 6.06968C17.7626 5.77678 18.2374 5.77678 18.5303 6.06968L19.1303 6.66968C19.4232 6.96257 19.4232 7.43744 19.1303 7.73034C18.8374 8.02323 18.3626 8.02323 18.0697 7.73034L17.4697 7.13034C17.1768 6.83744 17.1768 6.36257 17.4697 6.06968Z" fill="white"/>
<path fill-rule="evenodd" clip-rule="evenodd" d="M12 2.25C12.4142 2.25 12.75 2.58579 12.75 3V6.6C12.75 7.01421 12.4142 7.35 12 7.35C11.5858 7.35 11.25 7.01421 11.25 6.6V3C11.25 2.58579 11.5858 2.25 12 2.25Z" fill="white"/>
<path fill-rule="evenodd" clip-rule="evenodd" d="M9.45 3C9.45 2.58579 9.78579 2.25 10.2 2.25H13.8C14.2142 2.25 14.55 2.58579 14.55 3C14.55 3.41421 14.2142 3.75 13.8 3.75H10.2C9.78579 3.75 9.45 3.41421 9.45 3Z" fill="white"/>
<path fill-rule="evenodd" clip-rule="evenodd" d="M8.49723 10.5227C8.80459 10.245 9.27886 10.2691 9.55653 10.5764L12.5565 13.8972C12.8342 14.2046 12.8101 14.6789 12.5028 14.9565C12.1954 15.2342 11.7211 15.2101 11.4435 14.9028L8.44347 11.582C8.1658 11.2746 8.18987 10.8003 8.49723 10.5227Z" fill="white"/>
</svg>
