<svg width="24" height="24" viewBox="0 0 24 24" fill="none" xmlns="http://www.w3.org/2000/svg">
<path fill-rule="evenodd" clip-rule="evenodd" d="M10.0111 4.47269C10.2448 4.23899 10.5618 4.1077 10.8923 4.1077H13.1077C13.4382 4.1077 13.7552 4.23899 13.9889 4.47269C14.2226 4.70639 14.3538 5.02335 14.3538 5.35385V18.5077H15.1846V8.67693C15.1846 8.34643 15.3159 8.02946 15.5496 7.79576C15.7833 7.56206 16.1003 7.43077 16.4308 7.43077H18.6462C18.9767 7.43077 19.2936 7.56206 19.5273 7.79576C19.761 8.02946 19.8923 8.34643 19.8923 8.67693V18.5077H20.3077C20.69 18.5077 21 18.8177 21 19.2C21 19.5824 20.69 19.8923 20.3077 19.8923H8.12466C8.12413 19.8923 8.1236 19.8923 8.12308 19.8923H4.8C4.79947 19.8923 4.79895 19.8923 4.79842 19.8923H3.69231C3.30996 19.8923 3 19.5824 3 19.2C3 18.8177 3.30996 18.5077 3.69231 18.5077H4.10769V12C4.10769 11.6695 4.23898 11.3525 4.47268 11.1188C4.70638 10.8851 5.02334 10.7539 5.35385 10.7539H7.56923C7.89973 10.7539 8.2167 10.8851 8.45039 11.1188C8.68409 11.3525 8.81538 11.6695 8.81538 12V18.5077H9.64615V5.35385C9.64615 5.02335 9.77745 4.70638 10.0111 4.47269ZM11.0308 18.5077H12.9692V5.49231H11.0308V18.5077ZM7.43077 18.5077V12.1385H5.49231V18.5077H7.43077ZM18.5077 18.5077V8.81539H16.5692V18.5077H18.5077Z" fill="white"/>
</svg>
