<svg width="24" height="24" viewBox="0 0 24 24" fill="none" xmlns="http://www.w3.org/2000/svg">
<path fill-rule="evenodd" clip-rule="evenodd" d="M6.64616 4.38462C6.43807 4.38462 6.2385 4.46728 6.09135 4.61442C5.94421 4.76157 5.86154 4.96114 5.86154 5.16923V18.8308C5.86154 19.0389 5.94421 19.2384 6.09135 19.3856C6.2385 19.5327 6.43807 19.6154 6.64616 19.6154H17.3539C17.5619 19.6154 17.7615 19.5327 17.9087 19.3856C18.0558 19.2384 18.1385 19.0389 18.1385 18.8308V9.18462L15.5077 9.18462C14.9324 9.18462 14.3806 8.95607 13.9738 8.54926C13.567 8.14245 13.3385 7.5907 13.3385 7.01538V4.38462H6.64616ZM14.7231 5.36369L17.1594 7.8H15.5077C15.2996 7.8 15.1 7.71734 14.9529 7.57019C14.8057 7.42305 14.7231 7.22348 14.7231 7.01538V5.36369ZM5.11228 3.63535C5.51909 3.22854 6.07084 3 6.64616 3H14.0308C14.2144 3 14.3905 3.07294 14.5203 3.20277L19.3203 8.00277C19.4501 8.13261 19.5231 8.3087 19.5231 8.49231V18.8308C19.5231 19.4061 19.2945 19.9578 18.8877 20.3646C18.4809 20.7715 17.9292 21 17.3539 21H6.64616C6.07084 21 5.51909 20.7715 5.11228 20.3646C4.70547 19.9578 4.47693 19.4061 4.47693 18.8308V5.16923C4.47693 4.59391 4.70547 4.04216 5.11228 3.63535ZM7.24616 10.7077C7.24616 10.3253 7.55612 10.0154 7.93847 10.0154H16.0615C16.4439 10.0154 16.7539 10.3253 16.7539 10.7077C16.7539 11.09 16.4439 11.4 16.0615 11.4H7.93847C7.55612 11.4 7.24616 11.09 7.24616 10.7077ZM7.24616 13.0486C7.24616 12.6662 7.55612 12.3562 7.93847 12.3562H16.0615C16.4439 12.3562 16.7539 12.6662 16.7539 13.0486C16.7539 13.4309 16.4439 13.7409 16.0615 13.7409H7.93847C7.55612 13.7409 7.24616 13.4309 7.24616 13.0486ZM7.24616 15.3822C7.24616 14.9999 7.55612 14.6899 7.93847 14.6899H16.0615C16.4439 14.6899 16.7539 14.9999 16.7539 15.3822C16.7539 15.7646 16.4439 16.0745 16.0615 16.0745H7.93847C7.55612 16.0745 7.24616 15.7646 7.24616 15.3822ZM7.24616 17.7231C7.24616 17.3407 7.55612 17.0308 7.93847 17.0308H11.8228C12.2051 17.0308 12.5151 17.3407 12.5151 17.7231C12.5151 18.1054 12.2051 18.4154 11.8228 18.4154H7.93847C7.55612 18.4154 7.24616 18.1054 7.24616 17.7231Z" fill="#0A332F"/>
</svg>
