<svg width="24" height="24" viewBox="0 0 24 24" fill="none" xmlns="http://www.w3.org/2000/svg">
<path fill-rule="evenodd" clip-rule="evenodd" d="M5.63604 5.63604C7.32387 3.94821 9.61305 3 12 3C14.3869 3 16.6761 3.94821 18.364 5.63604C20.0518 7.32387 21 9.61305 21 12C21 14.3869 20.0518 16.6761 18.364 18.364C18.1058 18.6221 17.8337 18.8629 17.5492 19.0857C17.5363 19.0965 17.523 19.1068 17.5095 19.1166C15.9409 20.331 14.005 21 12 21C9.99576 21 8.06044 20.3315 6.49218 19.1179C6.47743 19.1073 6.463 19.0961 6.44893 19.0842C6.16516 18.8619 5.8936 18.6215 5.63604 18.364C3.94821 16.6761 3 14.3869 3 12C3 9.61305 3.94821 7.32387 5.63604 5.63604ZM8.01289 18.4883C9.20254 19.2193 10.5808 19.6154 12 19.6154C13.4191 19.6154 14.7974 19.2193 15.987 18.4883C15.5324 18.1356 15.0321 17.8441 14.4986 17.6221C13.7068 17.2927 12.8576 17.1231 11.9999 17.1231C11.1423 17.1231 10.2931 17.2927 9.50128 17.6221C8.96782 17.8441 8.46747 18.1356 8.01289 18.4883ZM17.1267 17.6313C16.5006 17.096 15.7934 16.6612 15.0305 16.3437C14.0701 15.9442 13.0401 15.7385 11.9999 15.7385C10.9597 15.7385 9.9298 15.9442 8.96941 16.3437C8.20646 16.6612 7.49935 17.096 6.87326 17.6312C6.78549 17.5513 6.69942 17.4692 6.61511 17.3849C5.18695 15.9567 4.38462 14.0197 4.38462 12C4.38462 9.98027 5.18695 8.04327 6.61511 6.61511C8.04327 5.18695 9.98027 4.38462 12 4.38462C14.0197 4.38462 15.9567 5.18695 17.3849 6.61511C18.8131 8.04327 19.6154 9.98027 19.6154 12C19.6154 14.0197 18.8131 15.9567 17.3849 17.3849C17.3006 17.4692 17.2145 17.5514 17.1267 17.6313ZM8.76907 7.10753C9.62596 6.25063 10.7882 5.76923 12 5.76923C13.2118 5.76923 14.374 6.25063 15.2309 7.10753C16.0878 7.96442 16.5692 9.12663 16.5692 10.3385C16.5692 11.5503 16.0878 12.7125 15.2309 13.5694C14.374 14.4263 13.2118 14.9077 12 14.9077C10.7882 14.9077 9.62596 14.4263 8.76907 13.5694C7.91217 12.7125 7.43077 11.5503 7.43077 10.3385C7.43077 9.12663 7.91217 7.96442 8.76907 7.10753ZM12 7.15385C11.1554 7.15385 10.3454 7.48937 9.74814 8.0866C9.15091 8.68383 8.81538 9.49385 8.81538 10.3385C8.81538 11.1831 9.15091 11.9931 9.74814 12.5903C10.3454 13.1876 11.1554 13.5231 12 13.5231C12.8446 13.5231 13.6546 13.1876 14.2519 12.5903C14.8491 11.9931 15.1846 11.1831 15.1846 10.3385C15.1846 9.49385 14.8491 8.68383 14.2519 8.0866C13.6546 7.48937 12.8446 7.15385 12 7.15385Z" fill="white"/>
</svg>
